<svg xmlns="http://www.w3.org/2000/svg" fill="none" viewBox="4.64 1 38.72 46"  style="height: 100px;">
        <path fill-rule="evenodd" clip-rule="evenodd" d="M27.8333 44.4444V23.5741C27.8333 22.3338 27.8299 21.5296 27.7515 20.9401C27.6766 20.3864 27.5556 20.2126 27.4585 20.1155C27.3614 20.0184 27.1876 19.8975 26.6339 19.8225C26.0427 19.7441 25.2403 19.7407 24 19.7407C22.7597 19.7407 21.9555 19.7441 21.366 19.8225C20.8123 19.8975 20.6386 20.0184 20.5414 20.1155C20.4443 20.2126 20.3234 20.3864 20.2484 20.9401C20.17 21.5313 20.1666 22.3338 20.1666 23.5741V44.4444H27.8333Z" fill="#21B7A8"></path>
        <path fill-rule="evenodd" clip-rule="evenodd" d="M27.8333 44.4444V23.5741C27.8333 22.3338 27.8299 21.5296 27.7515 20.9401C27.6766 20.3864 27.5556 20.2126 27.4585 20.1155C27.3614 20.0184 27.1876 19.8975 26.6339 19.8225C26.0427 19.7441 25.2403 19.7407 24 19.7407C22.7597 19.7407 21.9555 19.7441 21.366 19.8225C20.8123 19.8975 20.6386 20.0184 20.5414 20.1155C20.4443 20.2126 20.3234 20.3864 20.2484 20.9401C20.17 21.5313 20.1666 22.3338 20.1666 23.5741V44.4444H27.8333Z" fill="black" fill-opacity="0.16"></path>
        <path d="M16.5656 27.8333C16.5656 27.4944 16.431 27.1694 16.1914 26.9298C15.9517 26.6902 15.6267 26.5555 15.2878 26.5555H10.1767C9.83782 26.5555 9.51281 26.6902 9.27318 26.9298C9.03355 27.1694 8.89893 27.4944 8.89893 27.8333V44.4444H16.5656V27.8333ZM39.101 32.9444C39.101 32.6055 38.9664 32.2805 38.7268 32.0409C38.4871 31.8013 38.1621 31.6667 37.8232 31.6667H32.7121C32.3732 31.6667 32.0482 31.8013 31.8086 32.0409C31.5689 32.2805 31.4343 32.6055 31.4343 32.9444V44.4444H39.101V32.9444Z" fill="#21B7A8"></path>
        <path d="M16.5656 27.8333C16.5656 27.4944 16.431 27.1694 16.1914 26.9298C15.9517 26.6902 15.6267 26.5555 15.2878 26.5555H10.1767C9.83782 26.5555 9.51281 26.6902 9.27318 26.9298C9.03355 27.1694 8.89893 27.4944 8.89893 27.8333V44.4444H16.5656V27.8333ZM39.101 32.9444C39.101 32.6055 38.9664 32.2805 38.7268 32.0409C38.4871 31.8013 38.1621 31.6667 37.8232 31.6667H32.7121C32.3732 31.6667 32.0482 31.8013 31.8086 32.0409C31.5689 32.2805 31.4343 32.6055 31.4343 32.9444V44.4444H39.101V32.9444Z" fill="white" fill-opacity="0.16"></path>
        <path d="M5.91743 44.4445C5.57854 44.4445 5.25353 44.5791 5.0139 44.8187C4.77427 45.0583 4.63965 45.3833 4.63965 45.7222C4.63965 46.0611 4.77427 46.3861 5.0139 46.6258C5.25353 46.8654 5.57854 47 5.91743 47H42.0825C42.4214 47 42.7464 46.8654 42.986 46.6258C43.2256 46.3861 43.3603 46.0611 43.3603 45.7222C43.3603 45.3833 43.2256 45.0583 42.986 44.8187C42.7464 44.5791 42.4214 44.4445 42.0825 44.4445H5.91743Z" fill="#21B7A8"></path>
        <path fill-rule="evenodd" clip-rule="evenodd" d="M32.0422 9.04226C32.0422 13.484 28.4417 17.0845 23.9999 17.0845C19.5582 17.0845 15.9576 13.484 15.9576 9.04226C15.9576 4.60052 19.5582 1 23.9999 1C28.4417 1 32.0422 4.60052 32.0422 9.04226Z" fill="#21B7A8"></path>
        <path d="M24.6029 4.21694C24.6029 4.05697 24.5394 3.90355 24.4262 3.79043C24.3131 3.67732 24.1597 3.61377 23.9997 3.61377C23.8398 3.61377 23.6864 3.67732 23.5732 3.79043C23.4601 3.90355 23.3966 4.05697 23.3966 4.21694V4.47188C22.0857 4.70671 20.9839 5.69189 20.9839 7.03173C20.9839 8.57343 22.442 9.64547 23.9997 9.64547C25.1072 9.64547 25.8093 10.3741 25.8093 11.0529C25.8093 11.7316 25.1072 12.4603 23.9997 12.4603C22.8923 12.4603 22.1902 11.7316 22.1902 11.0529C22.1902 10.8929 22.1267 10.7395 22.0136 10.6264C21.9004 10.5132 21.747 10.4497 21.5871 10.4497C21.4271 10.4497 21.2737 10.5132 21.1606 10.6264C21.0474 10.7395 20.9839 10.8929 20.9839 11.0529C20.9839 12.3927 22.0857 13.3779 23.3966 13.6127V13.8677C23.3966 14.0276 23.4601 14.181 23.5732 14.2942C23.6864 14.4073 23.8398 14.4708 23.9997 14.4708C24.1597 14.4708 24.3131 14.4073 24.4262 14.2942C24.5394 14.181 24.6029 14.0276 24.6029 13.8677V13.6127C25.9138 13.3779 27.0156 12.3927 27.0156 11.0529C27.0156 9.51116 25.5575 8.43913 23.9997 8.43913C22.8923 8.43913 22.1902 7.7105 22.1902 7.03173C22.1902 6.35296 22.8923 5.62434 23.9997 5.62434C25.1072 5.62434 25.8093 6.35296 25.8093 7.03173C25.8093 7.1917 25.8728 7.34512 25.9859 7.45824C26.099 7.57135 26.2525 7.6349 26.4124 7.6349C26.5724 7.6349 26.7258 7.57135 26.8389 7.45824C26.952 7.34512 27.0156 7.1917 27.0156 7.03173C27.0156 5.69189 25.9138 4.70671 24.6029 4.47188V4.21694Z" fill="white"></path>
    </svg>