 <svg xmlns="http://www.w3.org/2000/svg" fill="none" viewBox="4.24 7.81 40 32.61" style="height: 100px;">
          <circle cx="5.76837" cy="5.76837" r="5.76837" transform="matrix(-1 0 0 1 44.2402 19.1635)" fill="#2A394E"></circle>
          <path d="M21.5018 35.1478L18.7217 28.257L15.3036 26.5415L10.3696 28.3373L10.2806 31.1006L15.5848 39.2797C15.8217 39.6258 16.1381 39.9101 16.5075 40.1087C16.8769 40.3074 17.2885 40.4147 17.7079 40.4216C18.1273 40.4285 18.5422 40.3348 18.9179 40.1484C19.2936 39.9619 19.6192 39.6882 19.8674 39.3501L21.1521 37.6026C21.4081 37.2539 21.574 36.8473 21.635 36.4191C21.696 35.9908 21.6503 35.5541 21.5018 35.1478Z" fill="#2A394E"></path>
          <path d="M6.04915 28.5821C7.3319 30.1314 9.15882 31.1312 11.1552 31.3765L13.8904 31.4355H17.4346V28.8103V18.3092V15.6839H12.184C10.1727 15.6664 8.23085 16.4192 6.75681 17.7878C5.28277 19.1564 4.38823 21.0371 4.25665 23.0442C4.12506 25.0513 4.76641 27.0327 6.04915 28.5821Z" fill="#FFAE11"></path>
          <path d="M6.04915 28.5821C7.3319 30.1314 9.15882 31.1312 11.1552 31.3765L13.8904 31.4355H17.4346V28.8103V18.3092V15.6839H12.184C10.1727 15.6664 8.23085 16.4192 6.75681 17.7878C5.28277 19.1564 4.38823 21.0371 4.25665 23.0442C4.12506 25.0513 4.76641 27.0327 6.04915 28.5821Z" fill="black" fill-opacity="0.08"></path>
          <path d="M35.4363 8.425C27.5129 15.0702 19.1925 15.656 18.715 15.6839H17.4352V18.3092V28.8103V31.4355L20.0604 31.5914C22.8022 32.0082 29.2391 33.498 35.4363 38.6961C35.8191 39.0175 36.2856 39.223 36.7811 39.2884C37.2766 39.3539 37.7805 39.2765 38.2335 39.0654C38.6866 38.8543 39.0699 38.5182 39.3386 38.0968C39.6072 37.6753 39.7499 37.1859 39.75 36.6861V10.4333C39.7496 9.93368 39.6067 9.4445 39.3379 9.02327C39.0691 8.60204 38.6858 8.26626 38.2328 8.05536C37.7798 7.84447 37.2761 7.76722 36.7807 7.8327C36.2853 7.89818 35.819 8.10366 35.4363 8.425Z" fill="#FFAE11"></path>
          <path d="M17.5234 19.4253L17.5234 27.4253" stroke="white" stroke-width="2" stroke-linecap="round"></path>
        </svg>