<svg xmlns="http://www.w3.org/2000/svg" fill="none" viewBox="2.03 5.89 44 35.81" style="height: 100px;">
        <path d="M31.3587 12.3666C31.6261 12.3666 31.8934 12.3742 32.1532 12.3895C32.474 12.4124 32.7948 12.443 33.1157 12.4888C34.4601 10.9228 36.4615 9.92212 38.6921 9.92212H39.5705C40.365 9.92212 40.9455 10.6707 40.7546 11.4423L39.7004 15.6589C40.9073 16.7895 41.8928 18.1645 42.565 19.6999H43.5809C44.933 19.6999 46.0254 20.7923 46.0254 22.1444V29.4777C46.0254 30.8298 44.933 31.9221 43.5809 31.9221H41.1365C40.4414 32.8464 39.6164 33.6714 38.6921 34.3666L40.8921 39.2555C41.5384 40.6781 39.7997 41.6999 38.4476 41.6999H37.1032C35.7511 41.6999 34.6587 40.6076 33.5587 39.2555L31.3587 36.811H21.5809L20.4809 39.2555C19.8761 40.5784 19.3886 41.6999 18.0365 41.6999H15.5921C14.24 41.6999 12.8997 40.6021 13.1476 39.2555L14.2476 34.3666C11.5816 32.3652 9.76359 29.302 9.41984 25.811H7.21984C4.34761 25.811 2.02539 23.4888 2.02539 20.6166C2.02539 17.7443 4.34761 15.4221 7.21984 15.4221H7.52539C8.54136 15.4221 9.35872 16.2395 9.35872 17.2555C9.35872 18.2714 8.54136 19.0888 7.52539 19.0888H7.21984C6.37956 19.0888 5.69206 19.7763 5.69206 20.6166C5.69206 21.4569 6.37956 22.1444 7.21984 22.1444H9.60317C10.5275 17.5763 14.0108 13.9325 18.4872 12.7638C19.4726 12.5041 20.5115 12.3666 21.5809 12.3666H31.3587Z" fill="#FF7300"></path>
        <path d="M31.3587 12.3666C31.6261 12.3666 31.8934 12.3742 32.1532 12.3895C32.474 12.4124 32.7948 12.443 33.1157 12.4888C34.4601 10.9228 36.4615 9.92212 38.6921 9.92212H39.5705C40.365 9.92212 40.9455 10.6707 40.7546 11.4423L39.7004 15.6589C40.9073 16.7895 41.8928 18.1645 42.565 19.6999H43.5809C44.933 19.6999 46.0254 20.7923 46.0254 22.1444V29.4777C46.0254 30.8298 44.933 31.9221 43.5809 31.9221H41.1365C40.4414 32.8464 39.6164 33.6714 38.6921 34.3666L40.8921 39.2555C41.5384 40.6781 39.7997 41.6999 38.4476 41.6999H37.1032C35.7511 41.6999 34.6587 40.6076 33.5587 39.2555L31.3587 36.811H21.5809L20.4809 39.2555C19.8761 40.5784 19.3886 41.6999 18.0365 41.6999H15.5921C14.24 41.6999 12.8997 40.6021 13.1476 39.2555L14.2476 34.3666C11.5816 32.3652 9.76359 29.302 9.41984 25.811H7.21984C4.34761 25.811 2.02539 23.4888 2.02539 20.6166C2.02539 17.7443 4.34761 15.4221 7.21984 15.4221H7.52539C8.54136 15.4221 9.35872 16.2395 9.35872 17.2555C9.35872 18.2714 8.54136 19.0888 7.52539 19.0888H7.21984C6.37956 19.0888 5.69206 19.7763 5.69206 20.6166C5.69206 21.4569 6.37956 22.1444 7.21984 22.1444H9.60317C10.5275 17.5763 14.0108 13.9325 18.4872 12.7638C19.4726 12.5041 20.5115 12.3666 21.5809 12.3666H31.3587Z" fill="white" fill-opacity="0.16"></path>
        <path d="M32.5809 13.2755V13.222C32.5809 9.1734 29.2961 5.88867 25.2475 5.88867C21.1989 5.88867 17.9142 9.1734 17.9142 13.222C17.9142 13.3748 17.9218 13.5275 17.9295 13.6803L17.9295 13.6803C19.0982 13.3824 20.3204 13.222 21.5809 13.222H31.3586C31.7711 13.222 32.176 13.2449 32.5809 13.2755Z" fill="#2A394E"></path>
        <path d="M35.7108 21.4591C36.0546 21.8029 36.2477 22.2692 36.2477 22.7555C36.2477 23.2417 36.0546 23.708 35.7108 24.0518C35.3669 24.3956 34.9006 24.5888 34.4144 24.5888C33.9282 24.5888 33.4618 24.3956 33.118 24.0518C32.7742 23.708 32.5811 23.2417 32.5811 22.7555C32.5811 22.2692 32.7742 21.8029 33.118 21.4591C33.4618 21.1153 33.9282 20.9221 34.4144 20.9221C34.9006 20.9221 35.3669 21.1153 35.7108 21.4591Z" fill="white"></path>
      </svg>