<svg fill="none" xmlns="http://www.w3.org/2000/svg" viewBox="3.82 3.81 40 40" style="height: 100px ;text-align: center;">
          <path d="M8.93652 21.0194V6.60083H38.704V21.0194C38.704 26.7199 38.704 29.5701 36.8361 31.3413C34.9682 33.1125 31.9616 33.1125 25.9468 33.1125H21.6937C15.6807 33.1125 12.6723 33.1125 10.8044 31.3413C8.93652 29.5701 8.93652 26.7199 8.93652 21.0194Z" fill="#50AC57"></path>
          <path d="M8.93652 21.0194V6.60083H38.704V21.0194C38.704 26.7199 38.704 29.5701 36.8361 31.3413C34.9682 33.1125 31.9616 33.1125 25.9468 33.1125H21.6937C15.6807 33.1125 12.6723 33.1125 10.8044 31.3413C8.93652 29.5701 8.93652 26.7199 8.93652 21.0194Z" fill="white" fill-opacity="0.16"></path>
          <path d="M5.21566 3.81006C4.84559 3.81006 4.49068 3.95707 4.229 4.21875C3.96732 4.48043 3.82031 4.83534 3.82031 5.20541C3.82031 5.57548 3.96732 5.93039 4.229 6.19207C4.49068 6.45375 4.84559 6.60076 5.21566 6.60076H42.425C42.795 6.60076 43.1499 6.45375 43.4116 6.19207C43.6733 5.93039 43.8203 5.57548 43.8203 5.20541C43.8203 4.83534 43.6733 4.48043 43.4116 4.21875C43.1499 3.95707 42.795 3.81006 42.425 3.81006H5.21566ZM22.425 33.1124V39.6929L19.4761 41.1663C19.3107 41.2473 19.163 41.3602 19.0415 41.4986C18.9199 41.6369 18.8269 41.7979 18.7679 41.9724C18.7089 42.1468 18.685 42.3312 18.6976 42.5149C18.7102 42.6987 18.759 42.8781 18.8413 43.0428C18.9235 43.2076 19.0376 43.3544 19.1769 43.4749C19.3161 43.5954 19.4779 43.6871 19.6528 43.7447C19.8277 43.8024 20.0123 43.8249 20.1959 43.8109C20.3795 43.7968 20.5585 43.7466 20.7226 43.6631L23.8203 42.1152L26.918 43.6631C27.0821 43.7466 27.2611 43.7968 27.4447 43.8109C27.6284 43.8249 27.8129 43.8024 27.9878 43.7447C28.1627 43.6871 28.3245 43.5954 28.4638 43.4749C28.603 43.3544 28.7171 43.2076 28.7994 43.0428C28.8816 42.8781 28.9304 42.6987 28.943 42.5149C28.9556 42.3312 28.9317 42.1468 28.8727 41.9724C28.8137 41.7979 28.7207 41.6369 28.5992 41.4986C28.4776 41.3602 28.3299 41.2473 28.1645 41.1663L25.2157 39.691V33.1124H22.425Z" fill="#50AC57"></path>
          <path d="M5.21566 3.81006C4.84559 3.81006 4.49068 3.95707 4.229 4.21875C3.96732 4.48043 3.82031 4.83534 3.82031 5.20541C3.82031 5.57548 3.96732 5.93039 4.229 6.19207C4.49068 6.45375 4.84559 6.60076 5.21566 6.60076H42.425C42.795 6.60076 43.1499 6.45375 43.4116 6.19207C43.6733 5.93039 43.8203 5.57548 43.8203 5.20541C43.8203 4.83534 43.6733 4.48043 43.4116 4.21875C43.1499 3.95707 42.795 3.81006 42.425 3.81006H5.21566ZM22.425 33.1124V39.6929L19.4761 41.1663C19.3107 41.2473 19.163 41.3602 19.0415 41.4986C18.9199 41.6369 18.8269 41.7979 18.7679 41.9724C18.7089 42.1468 18.685 42.3312 18.6976 42.5149C18.7102 42.6987 18.759 42.8781 18.8413 43.0428C18.9235 43.2076 19.0376 43.3544 19.1769 43.4749C19.3161 43.5954 19.4779 43.6871 19.6528 43.7447C19.8277 43.8024 20.0123 43.8249 20.1959 43.8109C20.3795 43.7968 20.5585 43.7466 20.7226 43.6631L23.8203 42.1152L26.918 43.6631C27.0821 43.7466 27.2611 43.7968 27.4447 43.8109C27.6284 43.8249 27.8129 43.8024 27.9878 43.7447C28.1627 43.6871 28.3245 43.5954 28.4638 43.4749C28.603 43.3544 28.7171 43.2076 28.7994 43.0428C28.8816 42.8781 28.9304 42.6987 28.943 42.5149C28.9556 42.3312 28.9317 42.1468 28.8727 41.9724C28.8137 41.7979 28.7207 41.6369 28.5992 41.4986C28.4776 41.3602 28.3299 41.2473 28.1645 41.1663L25.2157 39.691V33.1124H22.425Z" fill="black" fill-opacity="0.16"></path>
          <path d="M16.5762 23.3892L21.5259 18.4394C21.9164 18.0489 22.5496 18.0489 22.9401 18.4394L25.0615 20.5607C25.452 20.9513 26.0851 20.9513 26.4757 20.5607L31.4254 15.611" stroke="white" stroke-width="3" stroke-linecap="round"></path>
</svg>