<svg xmlns="http://www.w3.org/2000/svg" width="342.284" height="253.822" viewBox="0 0 342.284 253.822">
    <defs>
        <clipPath id="i1kjh3h4pa">
            <path data-name="Rectangle 2264" style="fill:none" d="M0 0h342.284v253.822H0z"/>
        </clipPath>
        <clipPath id="3b2z6qlhwb">
            <path data-name="Rectangle 2259" transform="translate(217.048 242.247)" style="fill:#fff" d="M0 0h125.236v11.575H0z"/>
        </clipPath>
        <clipPath id="7kfjcijm0c">
            <path data-name="Rectangle 2260" transform="translate(0 242.247)" style="fill:#fff" d="M0 0h125.235v11.575H0z"/>
        </clipPath>
        <clipPath id="6lhuyqc17d">
            <path data-name="Rectangle 2262" transform="translate(100.46 81.401)" style="fill:none" d="M0 0h81.685v76.493H0z"/>
        </clipPath>
    </defs>
    <g data-name="Group 8363">
        <g data-name="Group 8267">
            <g data-name="Mask Group 8266" style="clip-path:url(#i1kjh3h4pa)">
                <g data-name="Group 8260">
                    <g data-name="Group 8259" style="clip-path:url(#i1kjh3h4pa)">
                        <g data-name="Group 8255" style="opacity:.1;isolation:isolate">
                            <g data-name="Group 8254">
                                <g data-name="Group 8253" style="clip-path:url(#3b2z6qlhwb)">
                                    <path data-name="Path 4058" d="M342.284 248.035c0-3.2-28.035-5.787-62.618-5.787s-62.617 2.591-62.617 5.787 28.035 5.787 62.617 5.787 62.618-2.591 62.618-5.787" style="fill:#fff"/>
                                </g>
                            </g>
                        </g>
                        <g data-name="Group 8258" style="opacity:.1;isolation:isolate">
                            <g data-name="Group 8257">
                                <g data-name="Group 8256" style="clip-path:url(#7kfjcijm0c)">
                                    <path data-name="Path 4059" d="M125.235 248.035c0-3.2-28.035-5.787-62.618-5.787S0 244.839 0 248.035s28.034 5.787 62.617 5.787 62.618-2.591 62.618-5.787" style="fill:#fff"/>
                                </g>
                            </g>
                        </g>
                    </g>
                </g>
                <path data-name="Path 4060" d="m244.986 131.363-19.434-90.482-28.067 1.342 20.458 90.433z" style="fill:#1c9ad6"/>
                <path data-name="Path 4061" d="m287.13 168.1-42.144-36.739-27.043 1.293L260.2 169.39z" style="fill:#e7f5fb"/>
                <g data-name="Group 8265">
                    <g data-name="Group 8264" style="clip-path:url(#i1kjh3h4pa)">
                        <path data-name="Path 4062" d="M260.2 169.39s-56.231-51.245-54.75-20.271 7.865 42.571 17.9 60.612l1.127 23.58 26.933-1.288c17.44-.834 31.163-27.175 35.726-63.921z" style="fill:#1c9ad6"/>
                        <path data-name="Path 4063" d="m217.944 132.656-20.458-90.433C184.022 59 175.831 94.254 177.759 134.578c2.661 55.635 23.575 99.839 46.713 98.732 17.44-.834 31.163-27.175 35.727-63.92z" style="fill:#fff"/>
                        <path data-name="Path 4064" d="m265.948 79.018 26.931-1.288c-8.136-35.5-24.146-59.856-41.393-59.031l-26.933 1.288 1.128 23.579a132.985 132.985 0 0 0-8.632 30.334l10.586 46.8z" style="fill:#1c9ad6"/>
                        <path data-name="Path 4065" d="M265.948 79.018c-8.137-35.5-24.147-59.856-41.4-59.031-6.368.3-12.239 4.015-17.351 10.385l20.433 90.322z" style="fill:#fff"/>
                        <path data-name="Path 4066" d="m265.948 79.018 26.932-1.288-38.72 41.7-26.5 1.379z" style="fill:#e7f5fb"/>
                        <path data-name="Path 4067" d="m274.374 103.092-42.623 22.043 42.226 36.708 26.932-1.288a228.4 228.4 0 0 0 1.351-38.819 240.483 240.483 0 0 0-1.775-19.893z" style="fill:#1c9ad6"/>
                        <path data-name="Path 4068" d="m231.722 125.109 42.255 36.734a228.514 228.514 0 0 0 1.35-38.819c-.32-6.7-.908-13.226-1.729-19.532z" style="fill:#fff"/>
                        <path data-name="Path 4069" d="m63.8 169.018 1.8 38.706L53.711 237.7l-2.281-.977 5.2-58.982z" style="fill:#1c9ad6"/>
                        <path data-name="Path 4070" d="m45.4 245.657-1.968 3.588a.789.789 0 0 0 .691 1.168h11.455a.788.788 0 0 0 .394-1.471l-5.683-3.285z" style="fill:#fff"/>
                        <path data-name="Path 4071" d="m49.233 235.778-3.322 2.389a.788.788 0 0 0 .12 1.351l10.332 4.94a.788.788 0 0 0 .99-1.157l-3.642-5.6z" style="fill:#fff"/>
                        <path data-name="Path 4072" d="m109.678 122.348-50.428 1.466s-6.137-.6-8.852 7.006c0 0-8.907 30.245-5 114.837h4.888S63.582 191.934 65.839 143.8c.066-1.411.191-2.817.388-4.215l.327-2.321a6.127 6.127 0 0 1 5.04-5.183l38.084-6.473z" style="fill:#1c9ad6"/>
                        <path data-name="Path 4073" d="m109.678 122.348 6.353-.24a.421.421 0 0 1 .294.736 1.609 1.609 0 0 1-1.062.4 1.609 1.609 0 0 0-1.375.754c-.631 1.023-2.024 2.615-4.21 1.609z" style="fill:#1c9ad6"/>
                        <path data-name="Path 4074" d="m60.327 123.007.1-.265a1.6 1.6 0 0 1 1.506-1.059.735.735 0 0 0 .595-.3l1.207-1.663a.5.5 0 0 0-.055-.651A10.481 10.481 0 0 1 61.825 116s-5.413.98-4.126 7.877l-.081.013c-2 .337-5.357 1.709-7.22 6.926 0 0-3.258 11.064-4.968 38.52 2.818 1.381 8.636 2.885 18.368-.322.927-8.368 1.649-16.877 2.041-25.219.066-1.411.19-2.817.388-4.216l.327-2.32a6.127 6.127 0 0 1 5.04-5.184l38.084-6.473v-3.259l-48.8 1.424a.571.571 0 0 1-.554-.764" style="fill:#fff"/>
                        <path data-name="Path 4075" d="M62.618 113.411c-.018 1.13-.492 3.589-3.808 6.13 0 0 .273 3.308-1.112 4.34 0 0-5.733-2.165-5.2-6.515a5.034 5.034 0 0 1 5.128-4.776c2.489-.05 2.723-.349 4.339-.4.449-.014.657.771.65 1.22" style="fill:#1c9ad6"/>
                        <path data-name="Path 4076" d="M105.833 154.1c4.7-8.267 17.061-22.471 32.878-37.234s30.839-26.117 39.411-30.234c1.93-3.4 2.569-5.794 1.618-6.812-3.264-3.5-24 10.551-46.318 31.379s-37.76 40.548-34.5 44.046c.951 1.019 3.385.547 6.907-1.145" style="fill:#fff"/>
                        <g data-name="Group 8263" style="opacity:.17">
                            <g data-name="Group 8262">
                                <g data-name="Group 8261" style="clip-path:url(#6lhuyqc17d)">
                                    <path data-name="Path 4077" d="M181.71 81.935c3.264 3.5-12.18 23.218-34.5 44.046s-43.05 34.877-46.31 31.379 12.18-23.217 34.5-44.045 43.054-34.878 46.318-31.38" style="fill:#fff"/>
                                </g>
                            </g>
                        </g>
                        <path data-name="Path 4078" d="M133.421 111.2c-22.316 20.828-37.76 40.548-34.5 44.046s24-10.551 46.318-31.379 37.761-40.546 34.5-44.043-24 10.551-46.318 31.379m10.249 10.981c-21.518 20.083-41.074 34.1-43.68 31.307s12.427-21.656 33.944-41.739 41.366-33.779 43.978-30.987-12.725 21.335-34.242 41.419" style="fill:#1c9ad6"/>
                        <path data-name="Path 4079" d="M145.243 123.87c-22.316 20.828-43.053 34.877-46.318 31.38l6.483 6.946c3.264 3.5 24-10.552 46.318-31.38s37.76-40.548 34.5-44.046l-6.483-6.946c3.265 3.5-12.18 23.218-34.5 44.046" style="fill:#fff"/>
                        <path data-name="Path 4080" d="m102.265 157.53-5.173 4.828a8.589 8.589 0 0 0-10.382 1.019l-75.8 70.745a8.594 8.594 0 1 0 11.727 12.565l75.8-70.746a8.59 8.59 0 0 0 1.731-10.287l5.173-4.828z" style="fill:#fff"/>
                        <path data-name="Path 4081" d="m22.636 246.687 75.8-70.745a8.592 8.592 0 0 0 1.731-10.288l5.173-4.828-1.538-1.648-93.312 87.09a8.594 8.594 0 0 0 12.146.419" style="fill:#fff"/>
                        <path data-name="Path 4082" d="m85.646 168.62 3.136 2.037.2 4.969s-4.969.079-5.295-4.562z" style="fill:#1c9ad6"/>
                        <path data-name="Path 4083" d="M51.183 244.109h-3.041a.363.363 0 1 1 0-.727h3.041a.363.363 0 0 1 0 .727" style="fill:#fff"/>
                        <path data-name="Path 4084" d="M55.093 236.142a.364.364 0 0 1-.212-.068l-1.681-1.211a.363.363 0 1 1 .424-.59l1.683 1.211a.363.363 0 0 1-.212.658" style="fill:#fff"/>
                        <path data-name="Path 4085" d="M15.092 230.218A15.409 15.409 0 0 0 26.7 242.892l1.612-1.5s-10.019-2.411-11.807-12.49z" style="fill:#1c9ad6"/>
                        <path data-name="Path 4086" d="m98.925 155.249 6.483 6.946c3.264 3.5 24-10.552 46.318-31.38l-6.483-6.946c-22.316 20.829-43.053 34.878-46.318 31.38" style="fill:#fff"/>
                        <path data-name="Path 4087" d="M72.617 176.529s5.259 8.078 12.16 12.161l1.561-1.457s-7.565-4.939-12.166-12.156z" style="fill:#1c9ad6"/>
                        <path data-name="Path 4088" d="M63.8 169.018c.927-8.368 1.65-16.878 2.041-25.219.066-1.411.191-2.817.388-4.216l.328-2.32a6.125 6.125 0 0 1 5.039-5.184l38.084-6.473-38.564 4.258s-14.948 1.822-21.4 20.867a82.484 82.484 0 0 0-4.282 18.609c2.817 1.381 8.635 2.885 18.367-.322" style="fill:#eaeaea"/>
                        <path data-name="Path 4089" d="M53.736 135.45s4.165 21.018 29.955 35.615l1.955-2.444S69.378 150.983 64.327 130.4z" style="fill:#fff"/>
                        <path data-name="Path 4090" d="M65.048 156.394a.362.362 0 0 1-.273-.124c-.057-.065-5.768-6.593-8.092-12.014a.363.363 0 0 1 .668-.286c2.278 5.314 7.913 11.756 7.97 11.821a.363.363 0 0 1-.273.6" style="fill:#1c9ad6"/>
                        <path data-name="Path 4091" d="M60.436 124.94s9.648 20.1 25.941 17.544l2.012.949-1.93 2.444s-17.748 2.607-26.023-20.937" style="fill:#1c9ad6"/>
                        <path data-name="Path 4092" d="M85.435 145.443h-.01a.182.182 0 0 1-.171-.192l.108-1.943a.178.178 0 0 1 .192-.171.181.181 0 0 1 .171.192l-.109 1.943a.181.181 0 0 1-.181.171" style="fill:#fff"/>
                        <path data-name="Path 4093" d="M204.77 128.143a.254.254 0 0 1-.139-.042L184.5 114.666a.25.25 0 0 1 .278-.416l20.13 13.435a.25.25 0 0 1-.139.458" style="fill:#231f20"/>
                        <path data-name="Path 4094" d="M205.094 135.3a.254.254 0 0 1-.139-.042l-20.129-13.435a.25.25 0 1 1 .278-.416l20.129 13.435a.25.25 0 0 1-.139.458" style="fill:#231f20"/>
                        <path data-name="Path 4095" d="M205.419 142.462a.254.254 0 0 1-.139-.042l-20.13-13.435a.25.25 0 0 1 .278-.416L205.558 142a.25.25 0 0 1-.139.458" style="fill:#231f20"/>
                        <path data-name="Path 4096" d="M243.483 182.794a.241.241 0 0 1-.145-.047l-11.467-8.188a.25.25 0 0 1 .291-.407l11.467 8.189a.25.25 0 0 1-.146.453" style="fill:#231f20"/>
                        <path data-name="Path 4097" d="M243.541 186.967a.242.242 0 0 1-.145-.047l-11.467-8.189a.25.25 0 1 1 .291-.407l11.467 8.19a.25.25 0 0 1-.146.453" style="fill:#231f20"/>
                        <path data-name="Path 4098" d="M243.6 191.138a.242.242 0 0 1-.145-.047l-11.47-8.191a.25.25 0 1 1 .291-.407l11.467 8.189a.25.25 0 0 1-.146.453" style="fill:#231f20"/>
                        <path data-name="Path 4099" d="M243.633 200.4a.246.246 0 0 1-.146-.047l-11.466-8.189a.25.25 0 1 1 .291-.407l11.466 8.19a.25.25 0 0 1-.145.453" style="fill:#231f20"/>
                        <path data-name="Path 4100" d="M243.691 204.576a.247.247 0 0 1-.146-.047l-11.466-8.188a.25.25 0 1 1 .291-.407l11.466 8.189a.25.25 0 0 1-.145.453" style="fill:#231f20"/>
                        <path data-name="Path 4101" d="M243.748 208.749a.247.247 0 0 1-.146-.047l-11.466-8.189a.25.25 0 0 1 .291-.407l11.466 8.19a.25.25 0 0 1-.145.453" style="fill:#231f20"/>
                        <path data-name="Path 4102" d="m226.095 168.232-1.205 44.894-8.284-7.44.383-45.441z" style="fill:#eaeaea"/>
                        <path data-name="Path 4103" d="m214.485 183.492.174 20.776-7.5-6.727-.4-20.948z" style="fill:#eaeaea"/>
                        <path data-name="Path 4104" d="M289.409 163.768a.125.125 0 0 1-.006-.25l13.438-.625a.125.125 0 0 1 .011.25l-13.437.625z" style="fill:#fff"/>
                        <path data-name="Path 4105" d="M264.659 232.268a.125.125 0 0 1-.051-.239c.108-.049 10.866-4.984 14.432-16.049a.126.126 0 0 1 .157-.081.124.124 0 0 1 .081.157c-3.6 11.174-14.459 16.152-14.568 16.2a.13.13 0 0 1-.051.011" style="fill:#fff"/>
                        <path data-name="Path 4106" d="M206.159 39.018a.126.126 0 0 1-.122-.1l-2.5-10.5a.125.125 0 0 1 .244-.058l2.5 10.5a.126.126 0 0 1-.093.151.136.136 0 0 1-.029 0" style="fill:#fff"/>
                        <path data-name="Path 4107" d="M293.106 42.869h-30.759a3.275 3.275 0 0 1-3.271-3.271V3.272A3.275 3.275 0 0 1 262.347 0h30.759a3.275 3.275 0 0 1 3.271 3.272V39.6a3.275 3.275 0 0 1-3.271 3.271M262.347.5a2.775 2.775 0 0 0-2.771 2.772V39.6a2.774 2.774 0 0 0 2.771 2.771h30.759a2.774 2.774 0 0 0 2.771-2.771V3.272A2.775 2.775 0 0 0 293.106.5z" style="fill:#fff"/>
                        <path data-name="Path 4108" d="M266.291 34.3a.254.254 0 0 1-.139-.042.251.251 0 0 1-.069-.347l3.78-5.671a.255.255 0 0 1 .315-.088l4.2 1.966 3.024-7.988a.248.248 0 0 1 .144-.145.239.239 0 0 1 .2.011l4.023 2.072 7.167-15.359a.25.25 0 0 1 .453.212l-7.278 15.595a.248.248 0 0 1-.341.116l-4-2.064-3.021 7.979a.251.251 0 0 1-.34.138L270.16 28.7l-3.66 5.492a.25.25 0 0 1-.208.111" style="fill:#fff"/>
                        <path data-name="Path 4109" d="M289.81 9.292a.245.245 0 0 1-.1-.022l-1.292-.583a.25.25 0 0 1-.046-.429l1.125-.833a.246.246 0 0 1 .248-.029.251.251 0 0 1 .149.2l.167 1.417a.25.25 0 0 1-.248.279m-.8-.886.5.227-.066-.55z" style="fill:#fff"/>
                    </g>
                </g>
            </g>
        </g>
    </g>
</svg>
